<svg fill="none" height="42" viewBox="0 0 164 42" width="164" xmlns="http://www.w3.org/2000/svg"><g clip-rule="evenodd" fill-rule="evenodd"><path d="m135.91.00036621v13.96063379l20.291 11.7189-16.762 9.6806v-5.8087l8.592-4.9619-3.528-2.0375-8.593 4.9619v13.9606l27.349-15.795-23.82-13.7574v-5.80771l23.82 13.65001v-3.9695z" fill="#2541d4"/><path d="m76.5833 27.0087c1.7972 0 3.2662-.711 4.4071-2.1332l2.3442 2.4145c-1.8598 2.0942-4.0516 3.1413-6.5755 3.1413s-4.6024-.7971-6.2355-2.3911c-1.6331-1.5941-2.4497-3.6062-2.4497-6.0363s.8322-4.4579 2.4966-6.0832c1.6643-1.6253 3.6999-2.4379 6.1066-2.4379 2.688 0 4.9384 1.0236 6.7512 3.0709l-2.2738 2.5786c-1.1565-1.4378-2.5943-2.1567-4.3133-2.1567-1.3753 0-2.5513.4493-3.528 1.3479-.9768.8986-1.4652 2.1098-1.4652 3.6335s.4611 2.7466 1.3831 3.6687c.9221.922 2.0395 1.383 3.3522 1.383zm-15.7528-8.7905c.9376 1.0315 1.4065 2.2778 1.4065 3.739s-.4689 2.7036-1.4065 3.7273c-.9377 1.0236-2.0903 1.5354-3.4577 1.5354-1.3675 0-2.52-.5118-3.4577-1.5354-.9377-1.0237-1.4065-2.2661-1.4065-3.7273s.4688-2.7075 1.4065-3.739c.9377-1.0314 2.0902-1.5471 3.4577-1.5471 1.3674 0 2.52.5157 3.4577 1.5471zm-3.4694 12.1898c2.4223 0 4.4617-.8087 6.1183-2.4262 1.6565-1.6175 2.4848-3.6296 2.4848-6.0363s-.8283-4.4188-2.4848-6.0363c-1.6566-1.6175-3.696-2.4262-6.1183-2.4262-2.4224 0-4.4618.8087-6.1184 2.4262-1.6565 1.6175-2.4848 3.6296-2.4848 6.0363s.8283 4.4188 2.4848 6.0363c1.6566 1.6175 3.696 2.4262 6.1184 2.4262zm-49.22677-6.1194 4.17267-10.4306h3.9607l-6.58621 16.3858h-3.09433l-6.58716-16.3858h3.9607zm23.30077-7.1721v-3.2584h-11.8147v16.3858h12.0726v-3.235h-8.4156v-3.399h7.3373v-3.1178h-7.3373v-3.3756zm4.9224 13.1273v-16.3858h3.6569v13.1274h6.9857v3.2584zm54.9241.0004h-3.6569v-16.3858h3.6569zm12.3764-13.2218v13.2212h-3.657v-13.2212h-4.641v-3.1646h12.94v3.1646zm12.12 6.7515v6.4699h3.657v-6.4699l5.673-9.9159h-3.962l-3.54 6.0948-3.54-6.0948h-3.961z" fill="#000"/></g></svg>